<svg width="140" height="123" viewBox="0 0 140 123" fill="none" xmlns="http://www.w3.org/2000/svg">
<rect x="42" y="115" width="13.7643" height="53.3525" transform="rotate(-150 42 115)" fill="#6495ED"/>
<rect x="52.4984" y="34.8632" width="14" height="52.0033" transform="rotate(-30 52.4984 34.8632)" fill="#6495ED"/>
<rect x="63" y="16.5" width="13" height="92" transform="rotate(-30 63 16.5)" fill="#6495ED"/>
<rect x="65" y="98" width="14" height="51" transform="rotate(-90 65 98)" fill="#6495ED"/>
<rect x="35" y="115" width="14" height="93" transform="rotate(-90 35 115)" fill="#6495ED"/>
<rect x="22.1244" y="114.54" width="14" height="92.2981" transform="rotate(-150 22.1244 114.54)" fill="#6495ED"/>
<path d="M60.4 19L66.8086 31.75H53.9914L60.4 19Z" fill="#6495ED"/>
<path d="M78.1006 79.7718L90.4469 72.7816L92.2879 79.6523L78.1006 79.7718Z" fill="#6495ED"/>
<path d="M85.4429 79.7459L90.2358 72.099L94.4671 79.8532L85.4429 79.7459Z" fill="#6495ED"/>
<path d="M115.5 82L125.459 98.05H105.541L115.5 82Z" fill="#6495ED"/>
<path d="M65 84L74.5263 98.025H55.4737L65 84Z" fill="#6495ED"/>
<path d="M52.3692 69.5323L60.5127 55.3389L68.7169 68.8098L52.3692 69.5323Z" fill="#6495ED"/>
<path d="M62.9547 16.5084L70.4607 3.43946L78.0258 16.5425L62.9547 16.5084Z" fill="#6495ED"/>
<path d="M32.5 104L39.8612 115.01H25.1388L32.5 104Z" fill="#6495ED"/>
<path d="M5.36956 114.791L14.1872 100.445L22.2056 114.484L5.36956 114.791Z" fill="#6495ED"/>
<path d="M128.095 101.14L137.669 115.015H118.521L128.095 101.14Z" fill="#6495ED"/>
</svg>
